<svg xmlns="http://www.w3.org/2000/svg" width="40" height="40" viewBox="0 0 40 40">
  <defs>
    <linearGradient id="grad" x1="0%" y1="0%" x2="100%" y2="100%">
      <stop offset="0%" style="stop-color:#7c3aed"/>
      <stop offset="100%" style="stop-color:#c084fc"/>
    </linearGradient>
  </defs>
  <rect width="40" height="40" rx="8" fill="url(#grad)" opacity="0.15"/>
  <rect x="1" y="1" width="38" height="38" rx="7" fill="none" stroke="url(#grad)" stroke-width="1.5"/>
  <!-- S -->
  <path d="M8 13 Q8 10 11 10 L16 10 Q19 10 19 13 Q19 16 16 17 L11 18 Q8 19 8 22 Q8 25 11 25 L16 25 Q19 25 19 22" stroke="url(#grad)" stroke-width="2.2" fill="none" stroke-linecap="round"/>
  <!-- I -->
  <line x1="24" y1="10" x2="24" y2="25" stroke="url(#grad)" stroke-width="2.2" stroke-linecap="round"/>
  <line x1="21" y1="10" x2="27" y2="10" stroke="url(#grad)" stroke-width="2.2" stroke-linecap="round"/>
  <line x1="21" y1="25" x2="27" y2="25" stroke="url(#grad)" stroke-width="2.2" stroke-linecap="round"/>
  <!-- decorative dots -->
  <circle cx="32" cy="12" r="1.5" fill="#7c3aed" opacity="0.8"/>
  <circle cx="32" cy="20" r="1.5" fill="#a78bfa" opacity="0.6"/>
  <circle cx="32" cy="28" r="1.5" fill="#c084fc" opacity="0.4"/>
</svg>
